<?xml version="1.0" encoding="UTF-8" standalone="no"?>
<!DOCTYPE svg PUBLIC "-//W3C//DTD SVG 1.1//EN"
 "http://www.w3.org/Graphics/SVG/1.1/DTD/svg11.dtd">
<!-- Generated by graphviz version 2.46.0 (20210118.1747)
 -->
<!-- Pages: 1 -->
<svg width="1185pt" height="434pt"
 viewBox="0.00 0.00 1185.39 434.00" xmlns="http://www.w3.org/2000/svg" xmlns:xlink="http://www.w3.org/1999/xlink">
<g id="graph0" class="graph" transform="scale(1 1) rotate(0) translate(4 430)">
<polygon fill="white" stroke="transparent" points="-4,4 -4,-430 1181.39,-430 1181.39,4 -4,4"/>
<g id="clust3" class="cluster">
<title>cluster_namespace with {{Key:foo.com/managed_state,Operator:In,Values:[managed],}}</title>
<polygon fill="none" stroke="#ee0000" points="85.39,-274 85.39,-349 552.39,-349 552.39,-274 85.39,-274"/>
<text text-anchor="middle" x="318.89" y="-333.8" font-family="Times New Roman,serif" font-size="14.00" fill="#ee0000">namespace with {{Key:foo.com/managed&#45;state,Operator:In,Values:[managed],}}</text>
</g>
<g id="clust2" class="cluster">
<title>cluster_matching_ns</title>
<polygon fill="none" stroke="black" points="679.39,-274 679.39,-349 955.39,-349 955.39,-274 679.39,-274"/>
<text text-anchor="middle" x="817.39" y="-333.8" font-family="Times New Roman,serif" font-size="14.00">matching&#45;ns</text>
</g>
<g id="clust1" class="cluster">
<title>cluster_hello_world</title>
<polygon fill="none" stroke="black" points="375.39,-79 375.39,-241 614.39,-241 614.39,-79 375.39,-79"/>
<text text-anchor="middle" x="494.89" y="-225.8" font-family="Times New Roman,serif" font-size="14.00">hello&#45;world</text>
</g>
<!-- hello&#45;world/workload&#45;a[Deployment] -->
<g id="node1" class="node">
<title>hello&#45;world/workload&#45;a[Deployment]</title>
<ellipse fill="none" stroke="blue" cx="484.39" cy="-192" rx="101.28" ry="18"/>
<text text-anchor="middle" x="484.39" y="-188.3" font-family="Times New Roman,serif" font-size="14.00" fill="blue">workload&#45;a[Deployment]</text>
</g>
<!-- hello&#45;world/workload&#45;b[Deployment] -->
<g id="node2" class="node">
<title>hello&#45;world/workload&#45;b[Deployment]</title>
<ellipse fill="none" stroke="blue" cx="503.39" cy="-105" rx="102.88" ry="18"/>
<text text-anchor="middle" x="503.39" y="-101.3" font-family="Times New Roman,serif" font-size="14.00" fill="blue">workload&#45;b[Deployment]</text>
</g>
<!-- hello&#45;world/workload&#45;a[Deployment]&#45;&gt;hello&#45;world/workload&#45;b[Deployment] -->
<g id="edge9" class="edge">
<title>hello&#45;world/workload&#45;a[Deployment]&#45;&gt;hello&#45;world/workload&#45;b[Deployment]</title>
<path fill="none" stroke="#eec900" d="M428.38,-176.95C407.37,-168.8 391.03,-156.96 402.39,-141 407.84,-133.34 415.09,-127.34 423.22,-122.64"/>
<polygon fill="#eec900" stroke="#eec900" points="424.98,-125.67 432.33,-118.04 421.83,-119.43 424.98,-125.67"/>
<text text-anchor="middle" x="447.89" y="-144.8" font-family="Times New Roman,serif" font-size="14.00" fill="darkgreen">All Connections</text>
</g>
<!-- matching&#45;ns/matching&#45;workload[Deployment] -->
<g id="node3" class="node">
<title>matching&#45;ns/matching&#45;workload[Deployment]</title>
<ellipse fill="none" stroke="blue" cx="817.39" cy="-300" rx="129.98" ry="18"/>
<text text-anchor="middle" x="817.39" y="-296.3" font-family="Times New Roman,serif" font-size="14.00" fill="blue">matching&#45;workload[Deployment]</text>
</g>
<!-- hello&#45;world/workload&#45;a[Deployment]&#45;&gt;matching&#45;ns/matching&#45;workload[Deployment] -->
<g id="edge10" class="edge">
<title>hello&#45;world/workload&#45;a[Deployment]&#45;&gt;matching&#45;ns/matching&#45;workload[Deployment]</title>
<path fill="none" stroke="#eec900" d="M484.5,-210.09C485.61,-226.71 490.14,-251.26 506.39,-264 521.02,-275.47 654.92,-271.85 673.39,-274 693.75,-276.37 715.6,-279.73 735.97,-283.23"/>
<polygon fill="#eec900" stroke="#eec900" points="735.39,-286.68 745.84,-284.95 736.59,-279.78 735.39,-286.68"/>
<text text-anchor="middle" x="551.89" y="-252.8" font-family="Times New Roman,serif" font-size="14.00" fill="darkgreen">All Connections</text>
</g>
<!-- 0.0.0.0&#45;255.255.255.255 -->
<g id="node5" class="node">
<title>0.0.0.0&#45;255.255.255.255</title>
<ellipse fill="none" stroke="#ee0000" cx="503.39" cy="-18" rx="98.58" ry="18"/>
<text text-anchor="middle" x="503.39" y="-14.3" font-family="Times New Roman,serif" font-size="14.00" fill="#ee0000">0.0.0.0&#45;255.255.255.255</text>
</g>
<!-- hello&#45;world/workload&#45;a[Deployment]&#45;&gt;0.0.0.0&#45;255.255.255.255 -->
<g id="edge7" class="edge">
<title>hello&#45;world/workload&#45;a[Deployment]&#45;&gt;0.0.0.0&#45;255.255.255.255</title>
<path fill="none" stroke="#eec900" d="M419.88,-178.02C352.97,-161.55 262.95,-129.1 300.39,-79 315.52,-58.75 373.02,-42.94 422.97,-32.64"/>
<polygon fill="#eec900" stroke="#eec900" points="423.74,-36.06 432.85,-30.65 422.36,-29.19 423.74,-36.06"/>
<text text-anchor="middle" x="345.89" y="-101.3" font-family="Times New Roman,serif" font-size="14.00" fill="darkgreen">All Connections</text>
</g>
<!-- entire&#45;cluster -->
<g id="node6" class="node">
<title>entire&#45;cluster</title>
<polygon fill="none" stroke="#ee0000" points="804.39,-426 723.62,-408 804.39,-390 885.16,-408 804.39,-426"/>
<text text-anchor="middle" x="804.39" y="-404.3" font-family="Times New Roman,serif" font-size="14.00" fill="#ee0000">entire&#45;cluster</text>
</g>
<!-- hello&#45;world/workload&#45;a[Deployment]&#45;&gt;entire&#45;cluster -->
<g id="edge8" class="edge">
<title>hello&#45;world/workload&#45;a[Deployment]&#45;&gt;entire&#45;cluster</title>
<path fill="none" stroke="#8b4500" stroke-dasharray="5,2" d="M480.43,-210.28C477.87,-226.33 477.12,-249.82 490.39,-264 510.66,-285.66 533.36,-255.3 556.39,-274 584.01,-296.43 558.01,-325.12 584.39,-349 622.99,-383.94 680.18,-398.28 726.57,-403.96"/>
<polygon fill="#8b4500" stroke="#8b4500" points="726.27,-407.45 736.6,-405.08 727.04,-400.49 726.27,-407.45"/>
<text text-anchor="middle" x="629.89" y="-296.3" font-family="Times New Roman,serif" font-size="14.00" fill="darkgreen">All Connections</text>
</g>
<!-- hello&#45;world/workload&#45;b[Deployment]&#45;&gt;hello&#45;world/workload&#45;a[Deployment] -->
<g id="edge13" class="edge">
<title>hello&#45;world/workload&#45;b[Deployment]&#45;&gt;hello&#45;world/workload&#45;a[Deployment]</title>
<path fill="none" stroke="#eec900" d="M500.19,-123.17C498.33,-132.84 495.87,-145.13 493.39,-156 492.78,-158.66 492.12,-161.43 491.44,-164.19"/>
<polygon fill="#eec900" stroke="#eec900" points="488.03,-163.4 488.97,-173.96 494.82,-165.12 488.03,-163.4"/>
<text text-anchor="middle" x="540.89" y="-144.8" font-family="Times New Roman,serif" font-size="14.00" fill="darkgreen">All Connections</text>
</g>
<!-- hello&#45;world/workload&#45;b[Deployment]&#45;&gt;matching&#45;ns/matching&#45;workload[Deployment] -->
<g id="edge14" class="edge">
<title>hello&#45;world/workload&#45;b[Deployment]&#45;&gt;matching&#45;ns/matching&#45;workload[Deployment]</title>
<path fill="none" stroke="#eec900" d="M557.8,-120.47C569.58,-125.52 581.23,-132.2 590.39,-141 625.54,-174.76 595.95,-212.37 635.39,-241 648.78,-250.72 693.59,-244.12 709.39,-249 722.88,-253.17 724.69,-257.83 737.39,-264 747.52,-268.92 758.5,-273.93 768.99,-278.56"/>
<polygon fill="#eec900" stroke="#eec900" points="767.89,-281.9 778.45,-282.7 770.69,-275.49 767.89,-281.9"/>
<text text-anchor="middle" x="680.89" y="-188.3" font-family="Times New Roman,serif" font-size="14.00" fill="darkgreen">All Connections</text>
</g>
<!-- hello&#45;world/workload&#45;b[Deployment]&#45;&gt;0.0.0.0&#45;255.255.255.255 -->
<g id="edge11" class="edge">
<title>hello&#45;world/workload&#45;b[Deployment]&#45;&gt;0.0.0.0&#45;255.255.255.255</title>
<path fill="none" stroke="#eec900" d="M503.39,-86.8C503.39,-75.16 503.39,-59.55 503.39,-46.24"/>
<polygon fill="#eec900" stroke="#eec900" points="506.89,-46.18 503.39,-36.18 499.89,-46.18 506.89,-46.18"/>
<text text-anchor="middle" x="548.89" y="-57.8" font-family="Times New Roman,serif" font-size="14.00" fill="darkgreen">All Connections</text>
</g>
<!-- hello&#45;world/workload&#45;b[Deployment]&#45;&gt;entire&#45;cluster -->
<g id="edge12" class="edge">
<title>hello&#45;world/workload&#45;b[Deployment]&#45;&gt;entire&#45;cluster</title>
<path fill="none" stroke="#8b4500" stroke-dasharray="5,2" d="M575.38,-117.85C613.26,-124.29 660.42,-132.63 702.39,-141 735.44,-147.59 820.51,-158.41 850.39,-174 908.68,-204.41 921.25,-220.45 959.39,-274 1030.66,-374.07 1015.6,-347.75 995.39,-372 980.28,-390.13 924.54,-398.9 877.15,-403.12"/>
<polygon fill="#8b4500" stroke="#8b4500" points="876.86,-399.64 867.18,-403.96 877.44,-406.61 876.86,-399.64"/>
<text text-anchor="middle" x="996.89" y="-252.8" font-family="Times New Roman,serif" font-size="14.00" fill="darkgreen">All Connections</text>
</g>
<!-- matching&#45;ns/matching&#45;workload[Deployment]&#45;&gt;hello&#45;world/workload&#45;a[Deployment] -->
<g id="edge17" class="edge">
<title>matching&#45;ns/matching&#45;workload[Deployment]&#45;&gt;hello&#45;world/workload&#45;a[Deployment]</title>
<path fill="none" stroke="#eec900" d="M739.49,-285.52C685.7,-276.16 623.31,-265.15 620.39,-264 609.04,-259.51 607.99,-255.05 597.39,-249 575.11,-236.28 549.56,-223.47 528.39,-213.32"/>
<polygon fill="#eec900" stroke="#eec900" points="529.84,-210.13 519.31,-209 526.84,-216.46 529.84,-210.13"/>
<text text-anchor="middle" x="664.89" y="-252.8" font-family="Times New Roman,serif" font-size="14.00" fill="darkgreen">TCP 8050,8090</text>
</g>
<!-- matching&#45;ns/matching&#45;workload[Deployment]&#45;&gt;hello&#45;world/workload&#45;b[Deployment] -->
<g id="edge18" class="edge">
<title>matching&#45;ns/matching&#45;workload[Deployment]&#45;&gt;hello&#45;world/workload&#45;b[Deployment]</title>
<path fill="none" stroke="#eec900" d="M789.75,-282.4C782.5,-277.15 775.12,-270.9 769.39,-264 741.06,-229.9 759.99,-202.91 726.39,-174 690.67,-143.26 641.31,-126.42 598.11,-117.19"/>
<polygon fill="#eec900" stroke="#eec900" points="598.63,-113.72 588.14,-115.17 597.24,-120.58 598.63,-113.72"/>
<text text-anchor="middle" x="800.89" y="-188.3" font-family="Times New Roman,serif" font-size="14.00" fill="darkgreen">All Connections</text>
</g>
<!-- matching&#45;ns/matching&#45;workload[Deployment]&#45;&gt;0.0.0.0&#45;255.255.255.255 -->
<g id="edge15" class="edge">
<title>matching&#45;ns/matching&#45;workload[Deployment]&#45;&gt;0.0.0.0&#45;255.255.255.255</title>
<path fill="none" stroke="#eec900" d="M888.89,-284.86C899.18,-279.87 908.58,-273.12 915.39,-264 948.15,-220.15 951.39,-186.77 921.39,-141 868.25,-59.93 814.42,-81.23 721.39,-54 681.62,-42.36 636.57,-34.31 597.79,-28.89"/>
<polygon fill="#eec900" stroke="#eec900" points="597.93,-25.38 587.55,-27.5 596.99,-32.32 597.93,-25.38"/>
<text text-anchor="middle" x="974.89" y="-144.8" font-family="Times New Roman,serif" font-size="14.00" fill="darkgreen">All Connections</text>
</g>
<!-- matching&#45;ns/matching&#45;workload[Deployment]&#45;&gt;entire&#45;cluster -->
<g id="edge16" class="edge">
<title>matching&#45;ns/matching&#45;workload[Deployment]&#45;&gt;entire&#45;cluster</title>
<path fill="none" stroke="#8b4500" stroke-dasharray="5,2" d="M857.9,-317.19C884.39,-330.27 911.51,-350.06 896.39,-372 888.03,-384.12 874.89,-392.04 861.12,-397.23"/>
<polygon fill="#8b4500" stroke="#8b4500" points="859.94,-393.93 851.54,-400.39 862.13,-400.58 859.94,-393.93"/>
<text text-anchor="middle" x="945.89" y="-360.8" font-family="Times New Roman,serif" font-size="14.00" fill="darkgreen">All Connections</text>
</g>
<!-- all pods_in_namespace with {{Key:foo.com/managed&#45;state,Operator:In,Values:[managed],}} -->
<g id="node4" class="node">
<title>all pods_in_namespace with {{Key:foo.com/managed&#45;state,Operator:In,Values:[managed],}}</title>
<ellipse fill="none" stroke="#ee0000" cx="368.39" cy="-300" rx="39.79" ry="18"/>
<text text-anchor="middle" x="368.39" y="-296.3" font-family="Times New Roman,serif" font-size="14.00" fill="#ee0000">all pods</text>
</g>
<!-- all pods_in_namespace with {{Key:foo.com/managed&#45;state,Operator:In,Values:[managed],}}&#45;&gt;hello&#45;world/workload&#45;a[Deployment] -->
<g id="edge3" class="edge">
<title>all pods_in_namespace with {{Key:foo.com/managed&#45;state,Operator:In,Values:[managed],}}&#45;&gt;hello&#45;world/workload&#45;a[Deployment]</title>
<path fill="none" stroke="#ee7600" stroke-dasharray="5,2" d="M364.52,-281.97C363.14,-271.65 363.22,-258.66 369.39,-249 380.64,-231.39 399.16,-219.16 418.09,-210.74"/>
<polygon fill="#ee7600" stroke="#ee7600" points="419.47,-213.95 427.38,-206.9 416.8,-207.48 419.47,-213.95"/>
<text text-anchor="middle" x="413.89" y="-252.8" font-family="Times New Roman,serif" font-size="14.00" fill="darkgreen">TCP 8050,8090</text>
</g>
<!-- 0.0.0.0&#45;255.255.255.255&#45;&gt;hello&#45;world/workload&#45;b[Deployment] -->
<g id="edge1" class="edge">
<title>0.0.0.0&#45;255.255.255.255&#45;&gt;hello&#45;world/workload&#45;b[Deployment]</title>
<path fill="none" stroke="#eec900" d="M568.64,-31.59C592.41,-39.34 610.75,-51.27 598.39,-69 593.4,-76.15 586.78,-81.84 579.35,-86.38"/>
<polygon fill="#eec900" stroke="#eec900" points="577.49,-83.4 570.3,-91.18 580.77,-89.58 577.49,-83.4"/>
<text text-anchor="middle" x="646.89" y="-57.8" font-family="Times New Roman,serif" font-size="14.00" fill="darkgreen">All Connections</text>
</g>
<!-- 0.0.0.0&#45;255.255.255.255&#45;&gt;matching&#45;ns/matching&#45;workload[Deployment] -->
<g id="edge2" class="edge">
<title>0.0.0.0&#45;255.255.255.255&#45;&gt;matching&#45;ns/matching&#45;workload[Deployment]</title>
<path fill="none" stroke="#eec900" d="M592.04,-26C625.78,-30.97 663.91,-39.47 696.39,-54 716.19,-62.86 835.78,-157.97 850.39,-174 905.84,-234.84 919.12,-232.46 898.39,-264 894.74,-269.54 890.01,-274.22 884.67,-278.15"/>
<polygon fill="#eec900" stroke="#eec900" points="882.41,-275.44 875.84,-283.74 886.16,-281.35 882.41,-275.44"/>
<text text-anchor="middle" x="874.89" y="-144.8" font-family="Times New Roman,serif" font-size="14.00" fill="darkgreen">All Connections</text>
</g>
<!-- entire&#45;cluster&#45;&gt;hello&#45;world/workload&#45;a[Deployment] -->
<g id="edge4" class="edge">
<title>entire&#45;cluster&#45;&gt;hello&#45;world/workload&#45;a[Deployment]</title>
<path fill="none" stroke="#ee7600" stroke-dasharray="5,2" d="M727.68,-407.09C540.22,-406.5 70.66,-399.91 23.39,-349 -83.23,-234.17 206.58,-203.84 374.39,-195.85"/>
<polygon fill="#ee7600" stroke="#ee7600" points="374.69,-199.34 384.52,-195.39 374.37,-192.35 374.69,-199.34"/>
<text text-anchor="middle" x="52.39" y="-296.3" font-family="Times New Roman,serif" font-size="14.00" fill="darkgreen">TCP 8050</text>
</g>
<!-- entire&#45;cluster&#45;&gt;hello&#45;world/workload&#45;b[Deployment] -->
<g id="edge5" class="edge">
<title>entire&#45;cluster&#45;&gt;hello&#45;world/workload&#45;b[Deployment]</title>
<path fill="none" stroke="#ee7600" stroke-dasharray="5,2" d="M876.36,-406C936.34,-403.46 1015.12,-395.57 1035.39,-372 1102.33,-294.16 1105.56,-215.94 1035.39,-141 1007.4,-111.11 763.97,-105.82 616.27,-105.4"/>
<polygon fill="#ee7600" stroke="#ee7600" points="616.26,-101.9 606.25,-105.38 616.24,-108.9 616.26,-101.9"/>
<text text-anchor="middle" x="1131.89" y="-252.8" font-family="Times New Roman,serif" font-size="14.00" fill="darkgreen">All Connections</text>
</g>
<!-- entire&#45;cluster&#45;&gt;matching&#45;ns/matching&#45;workload[Deployment] -->
<g id="edge6" class="edge">
<title>entire&#45;cluster&#45;&gt;matching&#45;ns/matching&#45;workload[Deployment]</title>
<path fill="none" stroke="#ee7600" stroke-dasharray="5,2" d="M803.92,-389.82C803.87,-380.15 804.13,-367.87 805.39,-357 806.51,-347.38 808.51,-336.98 810.56,-327.78"/>
<polygon fill="#ee7600" stroke="#ee7600" points="813.98,-328.55 812.86,-318.02 807.16,-326.95 813.98,-328.55"/>
<text text-anchor="middle" x="850.89" y="-360.8" font-family="Times New Roman,serif" font-size="14.00" fill="darkgreen">All Connections</text>
</g>
</g>
</svg>
