<?xml version="1.0" encoding="UTF-8" standalone="no"?>
<!DOCTYPE svg PUBLIC "-//W3C//DTD SVG 1.1//EN"
 "http://www.w3.org/Graphics/SVG/1.1/DTD/svg11.dtd">
<!-- Generated by graphviz version 2.46.0 (20210118.1747)
 -->
<!-- Pages: 1 -->
<svg width="1172pt" height="386pt"
 viewBox="0.00 0.00 1172.00 386.00" xmlns="http://www.w3.org/2000/svg" xmlns:xlink="http://www.w3.org/1999/xlink">
<g id="graph0" class="graph" transform="scale(1 1) rotate(0) translate(4 382)">
<polygon fill="white" stroke="transparent" points="-4,4 -4,-382 1168,-382 1168,4 -4,4"/>
<g id="clust4" class="cluster">
<title>cluster_slytherin</title>
<polygon fill="none" stroke="black" points="344,-187 344,-262 667,-262 667,-187 344,-187"/>
<text text-anchor="middle" x="505.5" y="-246.8" font-family="Times New Roman,serif" font-size="14.00">slytherin</text>
</g>
<g id="clust1" class="cluster">
<title>cluster_gryffindor</title>
<polygon fill="none" stroke="black" points="326,-79 326,-154 637,-154 637,-79 326,-79"/>
<text text-anchor="middle" x="481.5" y="-138.8" font-family="Times New Roman,serif" font-size="14.00">gryffindor</text>
</g>
<g id="clust2" class="cluster">
<title>cluster_hufflepuff</title>
<polygon fill="none" stroke="black" points="803,-79 803,-154 1037,-154 1037,-79 803,-79"/>
<text text-anchor="middle" x="920" y="-138.8" font-family="Times New Roman,serif" font-size="14.00">hufflepuff</text>
</g>
<g id="clust3" class="cluster">
<title>cluster_ravenclaw</title>
<polygon fill="none" stroke="black" points="8,-187 8,-262 336,-262 336,-187 8,-187"/>
<text text-anchor="middle" x="172" y="-246.8" font-family="Times New Roman,serif" font-size="14.00">ravenclaw</text>
</g>
<g id="clust6" class="cluster">
<title>cluster_namespace with {conformance_house=slytherin}</title>
<polygon fill="none" stroke="#ee0000" points="749,-187 749,-262 1037,-262 1037,-187 749,-187"/>
<text text-anchor="middle" x="893" y="-246.8" font-family="Times New Roman,serif" font-size="14.00" fill="#ee0000">namespace with {conformance&#45;house=slytherin}</text>
</g>
<g id="clust5" class="cluster">
<title>cluster_namespace with {conformance_house=gryffindor}</title>
<polygon fill="none" stroke="#ee0000" points="42,-295 42,-370 340,-370 340,-295 42,-295"/>
<text text-anchor="middle" x="191" y="-354.8" font-family="Times New Roman,serif" font-size="14.00" fill="#ee0000">namespace with {conformance&#45;house=gryffindor}</text>
</g>
<!-- all pods_in_gryffindor -->
<g id="node1" class="node">
<title>all pods_in_gryffindor</title>
<ellipse fill="none" stroke="#ee0000" cx="589" cy="-105" rx="39.79" ry="18"/>
<text text-anchor="middle" x="589" y="-101.3" font-family="Times New Roman,serif" font-size="14.00" fill="#ee0000">all pods</text>
</g>
<!-- slytherin/draco&#45;malfoy[StatefulSet] -->
<g id="node7" class="node">
<title>slytherin/draco&#45;malfoy[StatefulSet]</title>
<ellipse fill="none" stroke="blue" cx="554" cy="-213" rx="104.78" ry="18"/>
<text text-anchor="middle" x="554" y="-209.3" font-family="Times New Roman,serif" font-size="14.00" fill="blue">draco&#45;malfoy[StatefulSet]</text>
</g>
<!-- all pods_in_gryffindor&#45;&gt;slytherin/draco&#45;malfoy[StatefulSet] -->
<g id="edge3" class="edge">
<title>all pods_in_gryffindor&#45;&gt;slytherin/draco&#45;malfoy[StatefulSet]</title>
<path fill="none" stroke="#ee7600" stroke-dasharray="5,2" d="M583.39,-122.99C577.83,-139.82 569.24,-165.84 562.78,-185.41"/>
<polygon fill="#ee7600" stroke="#ee7600" points="559.44,-184.38 559.62,-194.97 566.08,-186.57 559.44,-184.38"/>
<text text-anchor="middle" x="593" y="-165.8" font-family="Times New Roman,serif" font-size="14.00" fill="darkgreen">UDP 52</text>
</g>
<!-- gryffindor/harry&#45;potter[StatefulSet] -->
<g id="node2" class="node">
<title>gryffindor/harry&#45;potter[StatefulSet]</title>
<ellipse fill="none" stroke="blue" cx="433" cy="-105" rx="98.58" ry="18"/>
<text text-anchor="middle" x="433" y="-101.3" font-family="Times New Roman,serif" font-size="14.00" fill="blue">harry&#45;potter[StatefulSet]</text>
</g>
<!-- ravenclaw/luna&#45;lovegood[StatefulSet] -->
<g id="node5" class="node">
<title>ravenclaw/luna&#45;lovegood[StatefulSet]</title>
<ellipse fill="none" stroke="blue" cx="123" cy="-213" rx="107.48" ry="18"/>
<text text-anchor="middle" x="123" y="-209.3" font-family="Times New Roman,serif" font-size="14.00" fill="blue">luna&#45;lovegood[StatefulSet]</text>
</g>
<!-- gryffindor/harry&#45;potter[StatefulSet]&#45;&gt;ravenclaw/luna&#45;lovegood[StatefulSet] -->
<g id="edge12" class="edge">
<title>gryffindor/harry&#45;potter[StatefulSet]&#45;&gt;ravenclaw/luna&#45;lovegood[StatefulSet]</title>
<path fill="none" stroke="#eec900" d="M379.87,-120.3C341.97,-130.87 289.96,-146.13 245,-162 219.41,-171.03 191.35,-182.42 168.6,-192.05"/>
<polygon fill="#eec900" stroke="#eec900" points="167.03,-188.91 159.2,-196.06 169.78,-195.35 167.03,-188.91"/>
<text text-anchor="middle" x="268" y="-165.8" font-family="Times New Roman,serif" font-size="14.00" fill="darkgreen">UDP 52</text>
</g>
<!-- all pods_in_slytherin -->
<g id="node6" class="node">
<title>all pods_in_slytherin</title>
<ellipse fill="none" stroke="#ee0000" cx="392" cy="-213" rx="39.79" ry="18"/>
<text text-anchor="middle" x="392" y="-209.3" font-family="Times New Roman,serif" font-size="14.00" fill="#ee0000">all pods</text>
</g>
<!-- gryffindor/harry&#45;potter[StatefulSet]&#45;&gt;all pods_in_slytherin -->
<g id="edge10" class="edge">
<title>gryffindor/harry&#45;potter[StatefulSet]&#45;&gt;all pods_in_slytherin</title>
<path fill="none" stroke="#8b4500" stroke-dasharray="5,2" d="M399,-122.1C383.48,-131.4 366.67,-144.71 358,-162 353.17,-171.63 357.68,-181.57 364.81,-190.03"/>
<polygon fill="#8b4500" stroke="#8b4500" points="362.42,-192.59 371.9,-197.32 367.44,-187.71 362.42,-192.59"/>
<text text-anchor="middle" x="381" y="-165.8" font-family="Times New Roman,serif" font-size="14.00" fill="darkgreen">UDP 52</text>
</g>
<!-- gryffindor/harry&#45;potter[StatefulSet]&#45;&gt;slytherin/draco&#45;malfoy[StatefulSet] -->
<g id="edge13" class="edge">
<title>gryffindor/harry&#45;potter[StatefulSet]&#45;&gt;slytherin/draco&#45;malfoy[StatefulSet]</title>
<path fill="none" stroke="#eec900" d="M425.62,-123.01C420.09,-138.64 415.31,-161.65 427,-177 433.31,-185.29 451.21,-192.11 471.64,-197.45"/>
<polygon fill="#eec900" stroke="#eec900" points="470.96,-200.89 481.51,-199.88 472.64,-194.09 470.96,-200.89"/>
<text text-anchor="middle" x="450" y="-165.8" font-family="Times New Roman,serif" font-size="14.00" fill="darkgreen">UDP 52</text>
</g>
<!-- 0.0.0.0&#45;255.255.255.255 -->
<g id="node10" class="node">
<title>0.0.0.0&#45;255.255.255.255</title>
<ellipse fill="none" stroke="#ee0000" cx="665" cy="-18" rx="98.58" ry="18"/>
<text text-anchor="middle" x="665" y="-14.3" font-family="Times New Roman,serif" font-size="14.00" fill="#ee0000">0.0.0.0&#45;255.255.255.255</text>
</g>
<!-- gryffindor/harry&#45;potter[StatefulSet]&#45;&gt;0.0.0.0&#45;255.255.255.255 -->
<g id="edge9" class="edge">
<title>gryffindor/harry&#45;potter[StatefulSet]&#45;&gt;0.0.0.0&#45;255.255.255.255</title>
<path fill="none" stroke="#eec900" d="M475.01,-88.61C513.9,-74.36 571.82,-53.14 613.49,-37.87"/>
<polygon fill="#eec900" stroke="#eec900" points="614.72,-41.15 622.91,-34.42 612.31,-34.58 614.72,-41.15"/>
<text text-anchor="middle" x="585" y="-57.8" font-family="Times New Roman,serif" font-size="14.00" fill="darkgreen">UDP 52</text>
</g>
<!-- entire&#45;cluster -->
<g id="node11" class="node">
<title>entire&#45;cluster</title>
<polygon fill="none" stroke="#ee0000" points="859,-339 778.23,-321 859,-303 939.77,-321 859,-339"/>
<text text-anchor="middle" x="859" y="-317.3" font-family="Times New Roman,serif" font-size="14.00" fill="#ee0000">entire&#45;cluster</text>
</g>
<!-- gryffindor/harry&#45;potter[StatefulSet]&#45;&gt;entire&#45;cluster -->
<g id="edge11" class="edge">
<title>gryffindor/harry&#45;potter[StatefulSet]&#45;&gt;entire&#45;cluster</title>
<path fill="none" stroke="#8b4500" stroke-dasharray="5,2" d="M465.03,-122.27C486.79,-133.37 516.19,-148.46 542,-162 554.5,-168.56 556.49,-172.89 570,-177 591.58,-183.56 653.13,-173.24 671,-187 699.19,-208.7 671.71,-239.17 699,-262 714.24,-274.75 723.97,-264.25 743,-270 772.02,-278.77 803.53,-292.65 826.37,-303.56"/>
<polygon fill="#8b4500" stroke="#8b4500" points="825.07,-306.82 835.6,-308.03 828.13,-300.52 825.07,-306.82"/>
<text text-anchor="middle" x="722" y="-209.3" font-family="Times New Roman,serif" font-size="14.00" fill="darkgreen">UDP 52</text>
</g>
<!-- hufflepuff/cedric&#45;diggory[StatefulSet] -->
<g id="node3" class="node">
<title>hufflepuff/cedric&#45;diggory[StatefulSet]</title>
<ellipse fill="none" stroke="blue" cx="920" cy="-105" rx="108.58" ry="18"/>
<text text-anchor="middle" x="920" y="-101.3" font-family="Times New Roman,serif" font-size="14.00" fill="blue">cedric&#45;diggory[StatefulSet]</text>
</g>
<!-- hufflepuff/cedric&#45;diggory[StatefulSet]&#45;&gt;0.0.0.0&#45;255.255.255.255 -->
<g id="edge14" class="edge">
<title>hufflepuff/cedric&#45;diggory[StatefulSet]&#45;&gt;0.0.0.0&#45;255.255.255.255</title>
<path fill="none" stroke="#eec900" d="M903.37,-86.99C891.49,-75.86 874.55,-61.96 857,-54 828.04,-40.87 794.51,-32.67 763.65,-27.54"/>
<polygon fill="#eec900" stroke="#eec900" points="764.16,-24.07 753.74,-25.98 763.07,-30.99 764.16,-24.07"/>
<text text-anchor="middle" x="904" y="-57.8" font-family="Times New Roman,serif" font-size="14.00" fill="darkgreen">UDP 52</text>
</g>
<!-- hufflepuff/cedric&#45;diggory[StatefulSet]&#45;&gt;entire&#45;cluster -->
<g id="edge15" class="edge">
<title>hufflepuff/cedric&#45;diggory[StatefulSet]&#45;&gt;entire&#45;cluster</title>
<path fill="none" stroke="#8b4500" stroke-dasharray="5,2" d="M993.22,-118.31C1033.23,-129.18 1079.49,-149.44 1104,-187 1122.21,-214.92 1123.17,-234.73 1104,-262 1083.5,-291.14 989.75,-306.69 924.36,-314.14"/>
<polygon fill="#8b4500" stroke="#8b4500" points="923.68,-310.69 914.12,-315.27 924.45,-317.65 923.68,-310.69"/>
<text text-anchor="middle" x="1141" y="-209.3" font-family="Times New Roman,serif" font-size="14.00" fill="darkgreen">UDP 52</text>
</g>
<!-- all pods_in_ravenclaw -->
<g id="node4" class="node">
<title>all pods_in_ravenclaw</title>
<ellipse fill="none" stroke="#ee0000" cx="288" cy="-213" rx="39.79" ry="18"/>
<text text-anchor="middle" x="288" y="-209.3" font-family="Times New Roman,serif" font-size="14.00" fill="#ee0000">all pods</text>
</g>
<!-- all pods_in_ravenclaw&#45;&gt;gryffindor/harry&#45;potter[StatefulSet] -->
<g id="edge6" class="edge">
<title>all pods_in_ravenclaw&#45;&gt;gryffindor/harry&#45;potter[StatefulSet]</title>
<path fill="none" stroke="#ee7600" stroke-dasharray="5,2" d="M290.24,-194.92C292.42,-184.32 296.69,-171.05 305,-162 321.3,-144.26 344.21,-131.86 366.16,-123.32"/>
<polygon fill="#ee7600" stroke="#ee7600" points="367.63,-126.51 375.81,-119.78 365.22,-119.94 367.63,-126.51"/>
<text text-anchor="middle" x="328" y="-165.8" font-family="Times New Roman,serif" font-size="14.00" fill="darkgreen">UDP 52</text>
</g>
<!-- slytherin/draco&#45;malfoy[StatefulSet]&#45;&gt;gryffindor/harry&#45;potter[StatefulSet] -->
<g id="edge18" class="edge">
<title>slytherin/draco&#45;malfoy[StatefulSet]&#45;&gt;gryffindor/harry&#45;potter[StatefulSet]</title>
<path fill="none" stroke="#eec900" d="M523.03,-195.65C513.93,-190.25 504.23,-183.85 496,-177 479.69,-163.43 463.85,-145.55 452.14,-131.13"/>
<polygon fill="#eec900" stroke="#eec900" points="454.71,-128.75 445.74,-123.1 449.23,-133.11 454.71,-128.75"/>
<text text-anchor="middle" x="519" y="-165.8" font-family="Times New Roman,serif" font-size="14.00" fill="darkgreen">UDP 52</text>
</g>
<!-- slytherin/draco&#45;malfoy[StatefulSet]&#45;&gt;hufflepuff/cedric&#45;diggory[StatefulSet] -->
<g id="edge19" class="edge">
<title>slytherin/draco&#45;malfoy[StatefulSet]&#45;&gt;hufflepuff/cedric&#45;diggory[StatefulSet]</title>
<path fill="none" stroke="#eec900" d="M617.35,-198.53C654.87,-190.34 696.69,-180.75 705,-177 715.45,-172.28 715.29,-166.11 726,-162 755.65,-150.63 766.17,-161.61 797,-154 824.19,-147.29 853.44,-136.05 876.59,-126.13"/>
<polygon fill="#eec900" stroke="#eec900" points="878.02,-129.33 885.79,-122.13 875.23,-122.91 878.02,-129.33"/>
<text text-anchor="middle" x="749" y="-165.8" font-family="Times New Roman,serif" font-size="14.00" fill="darkgreen">UDP 52</text>
</g>
<!-- slytherin/draco&#45;malfoy[StatefulSet]&#45;&gt;0.0.0.0&#45;255.255.255.255 -->
<g id="edge16" class="edge">
<title>slytherin/draco&#45;malfoy[StatefulSet]&#45;&gt;0.0.0.0&#45;255.255.255.255</title>
<path fill="none" stroke="#eec900" d="M594.33,-196.36C612.31,-187.04 631.53,-173.21 641,-154 658,-119.5 663.1,-74.78 664.55,-46.48"/>
<polygon fill="#eec900" stroke="#eec900" points="668.06,-46.27 664.96,-36.14 661.07,-46 668.06,-46.27"/>
<text text-anchor="middle" x="684" y="-101.3" font-family="Times New Roman,serif" font-size="14.00" fill="darkgreen">UDP 52</text>
</g>
<!-- slytherin/draco&#45;malfoy[StatefulSet]&#45;&gt;entire&#45;cluster -->
<g id="edge17" class="edge">
<title>slytherin/draco&#45;malfoy[StatefulSet]&#45;&gt;entire&#45;cluster</title>
<path fill="none" stroke="#8b4500" stroke-dasharray="5,2" d="M562.53,-231.19C571.79,-247.88 588.22,-272.49 610,-285 639.4,-301.89 724.82,-311.17 787.43,-315.85"/>
<polygon fill="#8b4500" stroke="#8b4500" points="787.44,-319.36 797.67,-316.6 787.94,-312.38 787.44,-319.36"/>
<text text-anchor="middle" x="633" y="-273.8" font-family="Times New Roman,serif" font-size="14.00" fill="darkgreen">UDP 52</text>
</g>
<!-- all pods_in_namespace with {conformance&#45;house=gryffindor} -->
<g id="node8" class="node">
<title>all pods_in_namespace with {conformance&#45;house=gryffindor}</title>
<ellipse fill="none" stroke="#ee0000" cx="123" cy="-321" rx="39.79" ry="18"/>
<text text-anchor="middle" x="123" y="-317.3" font-family="Times New Roman,serif" font-size="14.00" fill="#ee0000">all pods</text>
</g>
<!-- all pods_in_namespace with {conformance&#45;house=gryffindor}&#45;&gt;ravenclaw/luna&#45;lovegood[StatefulSet] -->
<g id="edge4" class="edge">
<title>all pods_in_namespace with {conformance&#45;house=gryffindor}&#45;&gt;ravenclaw/luna&#45;lovegood[StatefulSet]</title>
<path fill="none" stroke="#ee7600" stroke-dasharray="5,2" d="M123,-302.97C123,-286.38 123,-260.88 123,-241.43"/>
<polygon fill="#ee7600" stroke="#ee7600" points="126.5,-241.34 123,-231.34 119.5,-241.34 126.5,-241.34"/>
<text text-anchor="middle" x="146" y="-273.8" font-family="Times New Roman,serif" font-size="14.00" fill="darkgreen">UDP 52</text>
</g>
<!-- all pods_in_namespace with {conformance&#45;house=slytherin} -->
<g id="node9" class="node">
<title>all pods_in_namespace with {conformance&#45;house=slytherin}</title>
<ellipse fill="none" stroke="#ee0000" cx="799" cy="-213" rx="39.79" ry="18"/>
<text text-anchor="middle" x="799" y="-209.3" font-family="Times New Roman,serif" font-size="14.00" fill="#ee0000">all pods</text>
</g>
<!-- all pods_in_namespace with {conformance&#45;house=slytherin}&#45;&gt;gryffindor/harry&#45;potter[StatefulSet] -->
<g id="edge5" class="edge">
<title>all pods_in_namespace with {conformance&#45;house=slytherin}&#45;&gt;gryffindor/harry&#45;potter[StatefulSet]</title>
<path fill="none" stroke="#ee7600" stroke-dasharray="5,2" d="M795.84,-194.58C792.81,-183.26 786.98,-169.3 776,-162 754.15,-147.47 565.56,-159.92 540,-154 515.86,-148.4 490.48,-137.28 470.51,-127.14"/>
<polygon fill="#ee7600" stroke="#ee7600" points="471.93,-123.94 461.45,-122.43 468.7,-130.15 471.93,-123.94"/>
<text text-anchor="middle" x="811" y="-165.8" font-family="Times New Roman,serif" font-size="14.00" fill="darkgreen">UDP 52</text>
</g>
<!-- 0.0.0.0&#45;255.255.255.255&#45;&gt;hufflepuff/cedric&#45;diggory[StatefulSet] -->
<g id="edge1" class="edge">
<title>0.0.0.0&#45;255.255.255.255&#45;&gt;hufflepuff/cedric&#45;diggory[StatefulSet]</title>
<path fill="none" stroke="#eec900" d="M710.41,-34.14C753.43,-48.48 818.15,-70.05 864.27,-85.42"/>
<polygon fill="#eec900" stroke="#eec900" points="863.23,-88.77 873.82,-88.61 865.44,-82.12 863.23,-88.77"/>
<text text-anchor="middle" x="830" y="-57.8" font-family="Times New Roman,serif" font-size="14.00" fill="darkgreen">UDP 52</text>
</g>
<!-- 0.0.0.0&#45;255.255.255.255&#45;&gt;slytherin/draco&#45;malfoy[StatefulSet] -->
<g id="edge2" class="edge">
<title>0.0.0.0&#45;255.255.255.255&#45;&gt;slytherin/draco&#45;malfoy[StatefulSet]</title>
<path fill="none" stroke="#eec900" d="M684.54,-35.75C695.8,-46.74 708.91,-62.17 715,-79 726.35,-110.34 731.37,-124.96 715,-154 712.58,-158.3 681.52,-175.03 677,-177 660.34,-184.26 641.76,-190.45 624.19,-195.52"/>
<polygon fill="#eec900" stroke="#eec900" points="623.24,-192.15 614.56,-198.22 625.13,-198.89 623.24,-192.15"/>
<text text-anchor="middle" x="748" y="-101.3" font-family="Times New Roman,serif" font-size="14.00" fill="darkgreen">UDP 52</text>
</g>
<!-- entire&#45;cluster&#45;&gt;hufflepuff/cedric&#45;diggory[StatefulSet] -->
<g id="edge7" class="edge">
<title>entire&#45;cluster&#45;&gt;hufflepuff/cedric&#45;diggory[StatefulSet]</title>
<path fill="none" stroke="#ee7600" stroke-dasharray="5,2" d="M924.84,-317.6C965.41,-312.3 1014.58,-298.15 1041,-262 1060.67,-235.09 1056.7,-216.4 1041,-187 1026.14,-159.17 997.02,-139.23 971.07,-126.09"/>
<polygon fill="#ee7600" stroke="#ee7600" points="972.57,-122.93 962.05,-121.73 969.53,-129.24 972.57,-122.93"/>
<text text-anchor="middle" x="1077" y="-209.3" font-family="Times New Roman,serif" font-size="14.00" fill="darkgreen">UDP 52</text>
</g>
<!-- entire&#45;cluster&#45;&gt;slytherin/draco&#45;malfoy[StatefulSet] -->
<g id="edge8" class="edge">
<title>entire&#45;cluster&#45;&gt;slytherin/draco&#45;malfoy[StatefulSet]</title>
<path fill="none" stroke="#ee7600" stroke-dasharray="5,2" d="M813.13,-313.21C780.23,-307.6 735.16,-298.36 697,-285 659.35,-271.82 618.83,-251.02 590.58,-235.33"/>
<polygon fill="#ee7600" stroke="#ee7600" points="592.29,-232.27 581.85,-230.43 588.86,-238.38 592.29,-232.27"/>
<text text-anchor="middle" x="720" y="-273.8" font-family="Times New Roman,serif" font-size="14.00" fill="darkgreen">UDP 52</text>
</g>
</g>
</svg>
