<?xml version="1.0" encoding="UTF-8" standalone="no"?>
<!DOCTYPE svg PUBLIC "-//W3C//DTD SVG 1.1//EN"
 "http://www.w3.org/Graphics/SVG/1.1/DTD/svg11.dtd">
<!-- Generated by graphviz version 2.46.0 (20210118.1747)
 -->
<!-- Pages: 1 -->
<svg width="422pt" height="186pt"
 viewBox="0.00 0.00 421.79 186.00" xmlns="http://www.w3.org/2000/svg" xmlns:xlink="http://www.w3.org/1999/xlink">
<g id="graph0" class="graph" transform="scale(1 1) rotate(0) translate(4 182)">
<polygon fill="white" stroke="transparent" points="-4,4 -4,-182 417.79,-182 417.79,4 -4,4"/>
<g id="clust1" class="cluster">
<title>cluster_default</title>
<polygon fill="none" stroke="black" points="8,-8 8,-170 206,-170 206,-8 8,-8"/>
<text text-anchor="middle" x="107" y="-154.8" font-family="Times New Roman,serif" font-size="14.00">default</text>
</g>
<!-- default/backend[Deployment] -->
<g id="node1" class="node">
<title>default/backend[Deployment]</title>
<ellipse fill="none" stroke="blue" cx="107" cy="-34" rx="90.98" ry="18"/>
<text text-anchor="middle" x="107" y="-30.3" font-family="Times New Roman,serif" font-size="14.00" fill="blue">backend[Deployment]</text>
</g>
<!-- default/frontend[Deployment] -->
<g id="node2" class="node">
<title>default/frontend[Deployment]</title>
<ellipse fill="none" stroke="blue" cx="107" cy="-121" rx="90.98" ry="18"/>
<text text-anchor="middle" x="107" y="-117.3" font-family="Times New Roman,serif" font-size="14.00" fill="blue">frontend[Deployment]</text>
</g>
<!-- default/frontend[Deployment]&#45;&gt;default/backend[Deployment] -->
<g id="edge3" class="edge">
<title>default/frontend[Deployment]&#45;&gt;default/backend[Deployment]</title>
<path fill="none" stroke="#eec900" d="M107,-102.8C107,-91.16 107,-75.55 107,-62.24"/>
<polygon fill="#eec900" stroke="#eec900" points="110.5,-62.18 107,-52.18 103.5,-62.18 110.5,-62.18"/>
<text text-anchor="middle" x="136" y="-73.8" font-family="Times New Roman,serif" font-size="14.00" fill="darkgreen">TCP 9090</text>
</g>
<!-- 0.0.0.0&#45;255.255.255.255 -->
<g id="node3" class="node">
<title>0.0.0.0&#45;255.255.255.255</title>
<ellipse fill="none" stroke="#ee0000" cx="315" cy="-34" rx="98.58" ry="18"/>
<text text-anchor="middle" x="315" y="-30.3" font-family="Times New Roman,serif" font-size="14.00" fill="#ee0000">0.0.0.0&#45;255.255.255.255</text>
</g>
<!-- default/frontend[Deployment]&#45;&gt;0.0.0.0&#45;255.255.255.255 -->
<g id="edge2" class="edge">
<title>default/frontend[Deployment]&#45;&gt;0.0.0.0&#45;255.255.255.255</title>
<path fill="none" stroke="#eec900" d="M139.9,-104.17C161.6,-93.95 190.75,-80.63 217,-70 231.01,-64.32 246.34,-58.62 260.62,-53.51"/>
<polygon fill="#eec900" stroke="#eec900" points="262.05,-56.72 270.31,-50.08 259.71,-50.12 262.05,-56.72"/>
<text text-anchor="middle" x="240" y="-73.8" font-family="Times New Roman,serif" font-size="14.00" fill="darkgreen">UDP 53</text>
</g>
<!-- 0.0.0.0&#45;255.255.255.255&#45;&gt;default/frontend[Deployment] -->
<g id="edge1" class="edge">
<title>0.0.0.0&#45;255.255.255.255&#45;&gt;default/frontend[Deployment]</title>
<path fill="none" stroke="#eec900" d="M303.04,-51.9C294.3,-62.99 281.49,-76.89 267,-85 245.52,-97.03 220.27,-104.93 196.26,-110.11"/>
<polygon fill="#eec900" stroke="#eec900" points="195.53,-106.69 186.42,-112.1 196.91,-113.55 195.53,-106.69"/>
<text text-anchor="middle" x="315" y="-73.8" font-family="Times New Roman,serif" font-size="14.00" fill="darkgreen">TCP 8080</text>
</g>
</g>
</svg>
