<?xml version="1.0" encoding="UTF-8" standalone="no"?>
<!DOCTYPE svg PUBLIC "-//W3C//DTD SVG 1.1//EN"
 "http://www.w3.org/Graphics/SVG/1.1/DTD/svg11.dtd">
<!-- Generated by graphviz version 2.46.0 (20210118.1747)
 -->
<!-- Pages: 1 -->
<svg width="427pt" height="218pt"
 viewBox="0.00 0.00 427.29 218.00" xmlns="http://www.w3.org/2000/svg" xmlns:xlink="http://www.w3.org/1999/xlink">
<g id="graph0" class="graph" transform="scale(1 1) rotate(0) translate(4 214)">
<polygon fill="white" stroke="transparent" points="-4,4 -4,-214 423.29,-214 423.29,4 -4,4"/>
<!-- 0.0.0.0&#45;255.255.255.255 -->
<g id="node1" class="node">
<title>0.0.0.0&#45;255.255.255.255</title>
<ellipse fill="none" stroke="blue" cx="215.29" cy="-192" rx="98.58" ry="18"/>
<text text-anchor="middle" x="215.29" y="-188.3" font-family="Times New Roman,serif" font-size="14.00" fill="blue">0.0.0.0&#45;255.255.255.255</text>
</g>
<!-- default/backend[Deployment] -->
<g id="node2" class="node">
<title>default/backend[Deployment]</title>
<ellipse fill="none" stroke="blue" cx="118.29" cy="-18" rx="118.08" ry="18"/>
<text text-anchor="middle" x="118.29" y="-14.3" font-family="Times New Roman,serif" font-size="14.00" fill="blue">default/backend[Deployment]</text>
</g>
<!-- 0.0.0.0&#45;255.255.255.255&#45;&gt;default/backend[Deployment] -->
<g id="edge1" class="edge">
<title>0.0.0.0&#45;255.255.255.255&#45;&gt;default/backend[Deployment]</title>
<path fill="none" stroke="#008000" d="M173.94,-175.6C151.04,-164.68 124.58,-147.57 111.29,-123 98.43,-99.23 102.96,-67.8 108.96,-45.73"/>
<polygon fill="#008000" stroke="#008000" points="112.35,-46.61 111.86,-36.02 105.65,-44.6 112.35,-46.61"/>
<text text-anchor="middle" x="140.29" y="-101.3" font-family="Times New Roman,serif" font-size="14.00" fill="#008000">TCP 9090</text>
</g>
<!-- default/frontend[Deployment] -->
<g id="node3" class="node">
<title>default/frontend[Deployment]</title>
<ellipse fill="none" stroke="blue" cx="296.29" cy="-105" rx="118.08" ry="18"/>
<text text-anchor="middle" x="296.29" y="-101.3" font-family="Times New Roman,serif" font-size="14.00" fill="blue">default/frontend[Deployment]</text>
</g>
<!-- 0.0.0.0&#45;255.255.255.255&#45;&gt;default/frontend[Deployment] -->
<g id="edge2" class="edge">
<title>0.0.0.0&#45;255.255.255.255&#45;&gt;default/frontend[Deployment]</title>
<path fill="none" stroke="grey" d="M211.28,-173.88C209.85,-163.52 209.92,-150.53 216.29,-141 220.14,-135.24 225.16,-130.42 230.82,-126.39"/>
<polygon fill="grey" stroke="grey" points="232.82,-129.27 239.49,-121.04 229.15,-123.31 232.82,-129.27"/>
<text text-anchor="middle" x="245.29" y="-144.8" font-family="Times New Roman,serif" font-size="14.00" fill="grey">TCP 8080</text>
</g>
<!-- default/frontend[Deployment]&#45;&gt;0.0.0.0&#45;255.255.255.255 -->
<g id="edge3" class="edge">
<title>default/frontend[Deployment]&#45;&gt;0.0.0.0&#45;255.255.255.255</title>
<path fill="none" stroke="grey" d="M291.65,-123.23C288.18,-133.63 282.59,-146.63 274.29,-156 269.83,-161.03 264.47,-165.55 258.83,-169.53"/>
<polygon fill="grey" stroke="grey" points="256.91,-166.6 250.42,-174.97 260.71,-172.47 256.91,-166.6"/>
<text text-anchor="middle" x="306.29" y="-144.8" font-family="Times New Roman,serif" font-size="14.00" fill="grey">UDP 53</text>
</g>
<!-- default/frontend[Deployment]&#45;&gt;default/backend[Deployment] -->
<g id="edge4" class="edge">
<title>default/frontend[Deployment]&#45;&gt;default/backend[Deployment]</title>
<path fill="none" stroke="magenta" d="M261.97,-87.61C233.4,-73.97 192.57,-54.47 161.73,-39.74"/>
<polygon fill="magenta" stroke="magenta" points="163.04,-36.49 152.5,-35.34 160.02,-42.81 163.04,-36.49"/>
<text text-anchor="middle" x="318.29" y="-57.8" font-family="Times New Roman,serif" font-size="14.00" fill="magenta">TCP 9090,UDP 53 (old: TCP 9090)</text>
</g>
</g>
</svg>
