<?xml version="1.0" encoding="UTF-8" standalone="no"?>
<!DOCTYPE svg PUBLIC "-//W3C//DTD SVG 1.1//EN"
 "http://www.w3.org/Graphics/SVG/1.1/DTD/svg11.dtd">
<!-- Generated by graphviz version 2.46.0 (20210118.1747)
 -->
<!-- Pages: 1 -->
<svg width="419pt" height="180pt"
 viewBox="0.00 0.00 419.00 180.05" xmlns="http://www.w3.org/2000/svg" xmlns:xlink="http://www.w3.org/1999/xlink">
<g id="graph0" class="graph" transform="scale(1 1) rotate(0) translate(4 176.05)">
<polygon fill="white" stroke="transparent" points="-4,4 -4,-176.05 415,-176.05 415,4 -4,4"/>
<g id="clust1" class="cluster">
<title>cluster_legend</title>
<polygon fill="none" stroke="black" points="8,-8 8,-164.05 403,-164.05 403,-8 8,-8"/>
<text text-anchor="middle" x="205.5" y="-152.05" font-family="Times New Roman,serif" font-size="10.00">Legend</text>
</g>
<!-- a -->
<!-- b -->
<!-- a&#45;&gt;b -->
<g id="edge1" class="edge">
<title>a&#45;&gt;b</title>
<path fill="none" stroke="#008000" d="M260.29,-128.79C286.65,-128.79 338.53,-128.79 366.7,-128.79"/>
<polygon fill="#008000" stroke="#008000" points="367.02,-129.49 369.02,-128.79 367.02,-128.09 367.02,-129.49"/>
<text text-anchor="middle" x="314.65" y="-134.79" font-family="Times New Roman,serif" font-size="10.00" fill="#008000">added connection</text>
</g>
<!-- c -->
<!-- d -->
<!-- c&#45;&gt;d -->
<g id="edge2" class="edge">
<title>c&#45;&gt;d</title>
<path fill="none" stroke="#ee0000" d="M40.45,-128.79C68.51,-128.79 125.53,-128.79 155.53,-128.79"/>
<polygon fill="#ee0000" stroke="#ee0000" points="155.65,-129.49 157.65,-128.79 155.65,-128.09 155.65,-129.49"/>
<text text-anchor="middle" x="99.15" y="-134.79" font-family="Times New Roman,serif" font-size="10.00" fill="#ee0000">removed connection</text>
</g>
<!-- e -->
<!-- f -->
<!-- e&#45;&gt;f -->
<g id="edge3" class="edge">
<title>e&#45;&gt;f</title>
<path fill="none" stroke="magenta" d="M251.51,-78.26C279.93,-78.26 337.79,-78.26 366.72,-78.26"/>
<polygon fill="magenta" stroke="magenta" points="366.75,-78.96 368.75,-78.26 366.75,-77.56 366.75,-78.96"/>
<text text-anchor="middle" x="310.21" y="-84.26" font-family="Times New Roman,serif" font-size="10.00" fill="magenta">changed connection</text>
</g>
<!-- g -->
<!-- h -->
<!-- g&#45;&gt;h -->
<g id="edge4" class="edge">
<title>g&#45;&gt;h</title>
<path fill="none" stroke="grey" d="M48.32,-78.26C78.46,-78.26 142.64,-78.26 174.4,-78.26"/>
<polygon fill="grey" stroke="grey" points="174.63,-78.96 176.63,-78.26 174.63,-77.56 174.63,-78.96"/>
<text text-anchor="middle" x="112.5" y="-84.26" font-family="Times New Roman,serif" font-size="10.00" fill="grey">unchanged connection</text>
</g>
<!-- np -->
<g id="node9" class="node">
<title>np</title>
<ellipse fill="none" stroke="#008000" cx="59" cy="-26" rx="31.4" ry="18"/>
<text text-anchor="middle" x="59" y="-23.5" font-family="Times New Roman,serif" font-size="10.00" fill="#008000">new peer</text>
</g>
<!-- lp -->
<g id="node10" class="node">
<title>lp</title>
<ellipse fill="none" stroke="red" cx="192" cy="-26" rx="30.04" ry="18"/>
<text text-anchor="middle" x="192" y="-23.5" font-family="Times New Roman,serif" font-size="10.00" fill="red">lost peer</text>
</g>
<!-- np&#45;&gt;lp -->
<!-- pp -->
<g id="node11" class="node">
<title>pp</title>
<ellipse fill="none" stroke="blue" cx="338" cy="-26" rx="44.98" ry="18"/>
<text text-anchor="middle" x="338" y="-23.5" font-family="Times New Roman,serif" font-size="10.00" fill="blue">persistent peer</text>
</g>
<!-- lp&#45;&gt;pp -->
</g>
</svg>
